HIERARCHY
ROOT ui
{
	 OFFSET 0 0 0
	 CHANNELS 3 XPosition YPosition Z Position
	 EndSite
	 {
	 OFFSET 0 -1 0
	 }
}
ROOT li
{
	 OFFSET 0 0 0
	 CHANNELS 3 XPosition YPosition Z Position
	 EndSite
	 {
	 OFFSET 0 -1 0
	 }
}
ROOT ul
{
	 OFFSET 0 0 0
	 CHANNELS 3 XPosition YPosition Z Position
	 EndSite
	 {
	 OFFSET 0 -1 0
	 }
}
ROOT ll
{
	 OFFSET 0 0 0
	 CHANNELS 3 XPosition YPosition Z Position
	 EndSite
	 {
	 OFFSET 0 -1 0
	 }
}
ROOT tt
{
	 OFFSET 0 0 0
	 CHANNELS 3 XPosition YPosition Z Position
	 EndSite
	 {
	 OFFSET 0 -1 0
	 }
}
ROOT tb
{
	 OFFSET 0 0 0
	 CHANNELS 3 XPosition YPosition Z Position
	 EndSite
	 {
	 OFFSET 0 -1 0
	 }
}
ROOT td
{
	 OFFSET 0 0 0
	 CHANNELS 3 XPosition YPosition Z Position
	 EndSite
	 {
	 OFFSET 0 -1 0
	 }
}
ROOT v
{
	 OFFSET 0 0 0
	 CHANNELS 3 XPosition YPosition Z Position
	 EndSite
	 {
	 OFFSET 0 -1 0
	 }
}
ROOT bn
{
	 OFFSET 0 0 0
	 CHANNELS 3 XPosition YPosition Z Position
	 EndSite
	 {
	 OFFSET 0 -1 0
	 }
}
MOTION
Frames: 10
Frame Time: 0.002
0.008828125	0.007723306179046631	0		0.6121187744140625	-2.6767822265625	0		-0.8235989379882812	0.22484580993652345	0		-0.545261474609375	-2.724279052734375	0		1.451248046875	-0.6208925170898437	0		3.096026611328125	-0.5209755859375	0		4.1167822265625	-0.29899642944335936	0		5.92118896484375	0.30728759765625	0		-0.15059297180175782	5.9390546875	0		
0.02888495635986328	6.729980111122131E-4	0		0.576364501953125	-2.65941943359375	0		-0.832549560546875	0.21700503540039062	0		-0.6342271118164062	-2.735531005859375	0		1.461182861328125	-0.6448629150390625	0		3.075042724609375	-0.5337117919921875	0		4.1318544921875	-0.30399383544921876	0		5.9172451171875	0.30043807983398435	0		-0.1524940948486328	5.9411650390625	0		
0.0020079030990600585	9.525629878044128E-4	0		0.613234130859375	-2.69560595703125	0		-0.8324284057617187	0.21708236694335936	0		-0.547446533203125	-2.78408984375	0		1.4581834716796875	-0.6617522583007812	0		3.06220458984375	-0.5285206909179687	0		4.1169775390625	-0.30378387451171873	0		5.9083662109375	0.30061343383789063	0		-0.16748033142089844	5.93035595703125	0		
-0.004904056072235107	-0.005931532859802246	0		0.5843878784179688	-2.69532568359375	0		-0.9082882690429688	0.21769985961914062	0		-0.6114820556640626	-2.809558349609375	0		1.4681497802734376	-0.6857531127929688	0		3.080309326171875	-0.533572509765625	0		4.11711767578125	-0.30369940185546873	0		5.91737890625	0.2836425170898437	0		-0.16737152099609376	5.93041943359375	0		
0.002304949998855591	0.0010626809597015382	0		0.5855748291015626	-2.6932841796875	0		-0.888080810546875	0.22459396362304687	0		-0.5404942626953125	-2.83503564453125	0		1.47719384765625	-0.7017650756835937	0		3.05965380859375	-0.5083570556640625	0		4.1023134765625	-0.29852291870117187	0		5.91765234375	0.29971951293945315	0		-0.1521652069091797	5.9413544921875	0		
0.0065046648979187015	0.004059032917022705	0		0.5957085571289062	-2.701328369140625	0		-0.8879041748046875	0.2246148223876953	0		-0.5685125122070313	-2.863806884765625	0		1.4793095703125	-0.7107456665039062	0		3.0927236328125	-0.523555908203125	0		4.11559423828125	-0.2845714416503906	0		5.91377783203125	0.29280706787109373	0		-0.15201983642578126	5.94137890625	0		
0.0026815919876098633	0.0010927250385284423	0		0.6369136962890625	-2.702620849609375	0		-0.8836774291992188	0.22858489990234376	0		-0.5375037841796875	-2.89203173828125	0		1.479322021484375	-0.7367326049804688	0		3.06616015625	-0.4913379821777344	0		4.09083837890625	-0.27836300659179686	0		5.913974609375	0.2928436279296875	0		-0.16693353271484376	5.93049267578125	0		
-0.004149525165557861	-0.005874711990356446	0		0.608148681640625	-2.702424072265625	0		-0.8784296264648438	0.23252471923828125	0		-0.5554070434570313	-2.91092138671875	0		1.4873408203125	-0.7648013305664062	0		3.072331298828125	-0.49838427734375	0		4.10605859375	-0.27847088623046873	0		5.914193359375	0.29285614013671873	0		-0.1516650390625	5.94136279296875	0		
-0.003908731937408447	-0.005918324947357178	0		0.6163223266601563	-2.71352294921875	0		-0.8622269897460938	0.22735995483398438	0		-0.5463858032226563	-2.94303271484375	0		1.4873953857421875	-0.7908367919921875	0		3.03767041015625	-0.4851571044921875	0		4.07630810546875	-0.2772757873535156	0		5.9054326171875	0.2929078369140625	0		-0.15145394897460937	5.94131884765625	0		
0.0074257030487060545	0.003931794881820679	0		0.6025894165039063	-2.714487060546875	0		-0.857944580078125	0.2302574920654297	0		-0.4973238830566406	-2.97246142578125	0		1.5045286865234375	-0.8090230102539062	0		3.075926025390625	-0.48649005126953127	0		4.074701904296875	-0.2593133239746094	0		5.918626953125	0.28377069091796875	0		-0.18526945495605468	5.9344970703125	0		
